{"glyphs":{"0":{"ha":865,"x_min":0,"x_max":0,"o":"m 432 1025 b 799 472 635 1025 799 778 b 432 -82 799 167 635 -82 b 67 472 231 -82 67 167 b 432 1025 67 778 231 1025 m 432 96 b 579 472 514 96 579 265 b 432 847 579 679 514 847 b 286 472 351 847 286 679 b 432 96 286 265 351 96 "},"1":{"ha":481,"x_min":0,"x_max":0,"o":"m 188 831 l 108 739 l 69 942 l 192 1050 l 361 985 l 413 3 l 174 -107 l 188 831 "},"2":{"ha":722,"x_min":0,"x_max":0,"o":"m 647 171 l 632 -78 l 161 -107 l 72 3 b 413 611 72 3 307 325 b 342 803 472 774 417 865 b 251 621 274 747 251 621 l 107 689 b 432 1050 93 856 231 1078 b 613 604 619 1025 676 811 b 378 61 525 321 378 61 l 647 171 "},"3":{"ha":767,"x_min":0,"x_max":0,"o":"m 613 46 b 111 53 497 -149 192 -174 b 118 294 69 167 118 294 l 318 285 b 321 107 318 285 249 160 b 472 328 385 58 525 140 b 213 446 429 483 213 446 l 247 607 b 417 675 247 607 358 589 b 386 888 461 739 471 867 b 253 706 283 914 240 783 l 108 725 b 274 1038 83 808 125 986 b 604 865 389 1078 571 1035 b 442 539 651 625 442 539 b 578 469 442 539 503 542 b 613 46 654 394 694 186 "},"4":{"ha":769,"x_min":0,"x_max":0,"o":"m 469 438 l 479 1050 l 650 985 l 701 3 l 461 -107 l 467 264 l 154 258 l 69 381 l 206 933 l 390 1050 l 278 436 l 469 438 "},"5":{"ha":739,"x_min":0,"x_max":0,"o":"m 613 46 b 111 53 497 -149 192 -174 b 118 294 69 167 118 294 l 318 285 b 386 89 318 285 244 82 b 433 396 486 94 503 303 b 307 454 400 438 351 451 l 213 446 l 168 525 l 204 922 l 83 918 l 157 1050 l 567 1050 l 567 933 l 335 926 l 354 607 b 547 551 417 608 490 599 b 613 46 685 442 694 186 "},"6":{"ha":706,"x_min":0,"x_max":0,"o":"m 417 525 b 379 -108 682 490 706 -60 b 97 408 235 -129 51 -14 b 464 1054 144 829 464 1054 l 585 890 b 311 578 585 890 428 850 b 281 492 299 550 289 522 b 417 525 315 518 361 532 m 382 53 b 404 363 474 75 492 340 b 261 210 331 382 269 299 b 382 53 276 107 318 38 "},"7":{"ha":671,"x_min":0,"x_max":0,"o":"m 335 636 l 447 918 l 69 839 l 106 1050 l 467 1050 l 600 911 l 518 631 l 583 629 l 583 569 l 496 558 l 301 -107 l 83 3 l 293 531 l 211 519 l 250 638 l 335 636 "},"8":{"ha":726,"x_min":0,"x_max":0,"o":"m 660 269 b 363 -107 660 61 526 -107 b 67 269 200 -107 67 61 b 288 635 67 444 161 592 b 156 835 210 664 156 742 b 353 1047 156 951 243 1047 b 550 835 461 1047 550 951 b 426 638 550 746 499 669 b 660 269 560 601 660 450 m 353 957 b 297 835 321 957 297 903 b 353 711 297 767 321 711 b 408 835 383 711 408 767 b 353 957 408 903 383 957 m 363 8 b 460 269 417 8 460 125 b 363 532 460 414 417 532 b 265 269 310 532 265 414 b 363 8 265 125 310 8 "},"9":{"ha":706,"x_min":0,"x_max":0,"o":"m 289 415 b 326 1049 24 450 0 1000 b 608 533 471 1069 656 954 b 242 -114 561 111 242 -114 l 121 50 b 394 363 121 50 278 90 b 425 449 407 390 417 419 b 289 415 390 422 346 408 m 324 888 b 301 578 232 865 214 600 b 444 731 375 558 436 642 b 324 888 431 833 388 904 "}," ":{"ha":556,"x_min":0,"x_max":0,"o":""},"!":{"ha":346,"x_min":0,"x_max":0,"o":"m 239 993 l 278 226 l 68 131 l 90 1050 l 239 993 m 82 18 l 257 85 l 276 -86 l 82 -103 l 82 18 "},"\"":{"ha":388,"x_min":0,"x_max":0,"o":"m 69 897 l 88 1094 l 179 1124 l 178 928 l 69 897 m 206 897 l 225 1094 l 321 1124 l 318 928 l 206 897 "},"#":{"ha":926,"x_min":0,"x_max":0,"o":"m 288 167 l 433 153 l 439 -4 l 229 -100 l 235 165 l 138 164 l 69 339 l 238 336 l 242 567 l 138 565 l 69 740 l 246 736 l 251 1050 l 400 993 l 411 733 l 585 729 l 592 1050 l 740 993 l 751 725 l 828 724 l 857 575 l 624 572 l 757 561 l 767 324 l 828 322 l 857 174 l 772 174 l 779 -4 l 569 -100 l 575 171 l 288 167 m 582 571 l 417 569 l 426 332 l 578 328 l 582 571 "},"$":{"ha":788,"x_min":0,"x_max":0,"o":"m 435 169 b 500 338 435 169 543 250 b 249 435 467 403 347 410 b 269 864 3 497 49 790 b 289 868 274 865 279 867 l 296 1029 l 413 1067 l 424 885 b 457 889 444 888 457 889 l 529 756 l 536 857 l 679 878 l 613 597 l 488 569 l 371 778 b 307 599 371 778 275 689 b 636 450 340 510 503 546 b 550 64 763 360 713 114 b 446 43 526 57 486 50 l 453 -69 l 315 -111 l 322 44 l 253 181 l 253 78 l 69 36 l 153 385 l 253 385 l 435 169 "},"%":{"ha":1008,"x_min":0,"x_max":0,"o":"m 811 942 l 351 -93 l 121 -76 l 708 1064 l 811 942 m 275 535 b 67 742 160 535 67 628 b 275 950 67 857 160 950 b 482 742 389 950 482 857 b 275 535 482 628 389 535 m 275 850 b 194 742 231 850 194 801 b 275 635 194 682 231 635 b 356 742 319 635 356 682 b 275 850 356 801 319 850 m 942 172 b 735 -36 942 57 849 -36 b 526 172 619 -36 526 57 b 735 379 526 286 619 379 b 942 172 849 379 942 286 m 735 64 b 815 172 779 64 815 113 b 735 279 815 232 779 279 b 654 172 690 279 654 232 b 735 64 654 113 690 64 "},"&":{"ha":1039,"x_min":0,"x_max":0,"o":"m 824 435 b 781 186 824 435 824 314 l 969 3 l 768 -107 l 690 22 b 650 -19 679 7 665 -7 b 154 46 518 -136 268 -149 b 189 469 72 186 111 394 b 324 539 264 542 324 539 b 189 858 324 539 136 656 b 522 1013 240 1054 418 1074 b 626 726 633 949 651 810 l 514 706 b 381 888 526 783 481 925 b 365 672 303 860 308 735 b 519 607 433 593 519 607 l 554 446 b 299 303 554 446 340 472 b 446 107 261 156 367 90 b 583 203 506 119 550 157 l 521 310 l 599 361 l 643 318 b 675 431 667 379 675 431 l 824 435 "},"'":{"ha":251,"x_min":0,"x_max":0,"o":"m 68 897 l 88 1094 l 183 1124 l 182 928 l 68 897 "},"(":{"ha":488,"x_min":0,"x_max":0,"o":"m 397 1110 b 417 -194 222 686 308 -82 b 251 -312 426 -194 251 -312 b 261 1244 26 -129 35 1003 l 397 1110 "},")":{"ha":488,"x_min":0,"x_max":0,"o":"m 90 -179 b 71 1126 265 244 179 1014 b 236 1244 63 1125 236 1244 b 226 -312 461 1061 454 -71 l 90 -179 "},"*":{"ha":600,"x_min":0,"x_max":0,"o":"m 490 871 l 435 753 l 318 919 l 235 753 l 146 875 l 257 965 l 68 1000 l 122 1117 l 263 1050 l 249 1213 l 365 1249 l 358 1047 l 468 1142 l 531 1054 l 379 974 l 490 871 "},"+":{"ha":742,"x_min":0,"x_max":0,"o":"m 414 700 l 425 497 l 671 492 l 633 394 l 431 383 l 439 200 l 301 136 l 308 378 l 133 368 l 71 506 l 311 500 l 317 738 l 414 700 "},",":{"ha":250,"x_min":0,"x_max":0,"o":"m 88 6 l 183 35 l 182 -161 l 68 -192 l 88 6 "},"-":{"ha":582,"x_min":0,"x_max":0,"o":"m 511 492 l 479 372 l 68 346 l 74 496 l 511 492 "},".":{"ha":331,"x_min":0,"x_max":0,"o":"m 67 18 l 242 85 l 263 -86 l 67 -103 l 67 18 "},"/":{"ha":832,"x_min":0,"x_max":0,"o":"m 657 1064 l 761 942 l 300 -93 l 69 -76 l 657 1064 "},":":{"ha":342,"x_min":0,"x_max":0,"o":"m 79 326 l 254 392 l 274 222 l 79 206 l 79 326 m 67 544 l 67 665 l 242 732 l 261 563 l 67 544 "},";":{"ha":329,"x_min":0,"x_max":0,"o":"m 67 544 l 67 665 l 242 732 l 261 563 l 67 544 m 214 388 l 213 192 l 99 160 l 118 357 l 214 388 "},"<":{"ha":615,"x_min":0,"x_max":0,"o":"m 67 325 l 67 510 l 378 818 l 507 663 l 228 410 l 546 193 l 413 3 l 67 325 "},"=":{"ha":581,"x_min":0,"x_max":0,"o":"m 72 706 l 510 700 l 479 581 l 67 556 l 72 706 m 67 219 l 72 368 l 510 364 l 479 244 l 67 219 "},">":{"ha":615,"x_min":0,"x_max":0,"o":"m 107 157 l 386 410 l 68 626 l 201 818 l 549 496 l 549 310 l 236 3 l 107 157 "},"?":{"ha":861,"x_min":0,"x_max":0,"o":"m 424 18 l 424 -103 l 229 -86 l 229 42 l 424 18 m 493 1040 b 438 113 861 896 422 310 l 247 151 b 424 886 224 240 560 803 b 251 557 338 940 204 728 l 111 551 b 493 1040 17 853 265 1129 "},"@":{"ha":1085,"x_min":0,"x_max":0,"o":"m 604 -107 b 542 1050 0 -150 25 1013 b 751 218 1056 1088 1054 236 b 638 293 693 215 658 246 b 524 226 608 249 567 224 b 401 457 446 233 390 336 b 563 661 413 576 483 668 b 633 624 589 660 614 646 b 638 647 636 638 638 647 l 736 589 b 744 310 736 589 679 315 b 561 931 825 303 863 935 b 604 42 247 925 228 38 b 839 231 803 43 839 231 l 1013 164 b 604 -107 1013 164 953 -82 m 594 440 b 556 578 601 514 583 575 b 492 449 526 581 499 522 b 532 311 485 375 503 314 b 594 440 560 308 589 367 "},"A":{"ha":900,"x_min":0,"x_max":0,"o":"m 613 -107 l 600 -4 l 808 106 l 828 3 l 613 -107 m 157 542 l 119 357 l 69 354 l 111 542 l 157 542 m 142 -107 l 236 367 l 158 360 l 194 540 l 271 539 l 350 942 l 629 1051 l 729 529 l 750 417 l 800 153 l 593 47 l 549 397 l 272 371 l 438 367 l 386 3 l 142 -107 m 499 796 l 461 535 l 532 533 l 499 796 "},"B":{"ha":986,"x_min":0,"x_max":0,"o":"m 178 800 l 111 792 l 69 1029 l 138 1026 l 178 800 m 269 813 l 226 807 l 186 1024 l 679 1007 l 763 857 l 539 546 b 825 515 635 585 760 610 b 854 58 918 381 854 58 l 706 -54 l 475 90 l 478 61 l 249 -19 l 269 813 m 682 146 b 457 351 682 146 760 533 l 461 293 l 682 146 m 557 843 l 346 821 l 426 803 l 435 693 l 557 843 m 247 -62 l 481 19 l 485 -42 l 244 -135 l 247 -62 "},"C":{"ha":843,"x_min":0,"x_max":0,"o":"m 564 383 b 558 431 563 399 561 415 l 764 451 b 768 400 765 435 767 417 l 564 383 m 710 993 l 539 940 l 532 992 l 708 1051 l 710 993 m 467 -89 b 278 964 0 -110 107 833 b 485 1028 343 1013 485 1028 l 564 763 l 544 907 l 711 960 l 717 657 l 528 614 l 432 836 b 476 72 319 718 317 61 b 568 336 543 76 575 199 l 771 353 b 467 -89 775 113 672 -81 "},"D":{"ha":961,"x_min":0,"x_max":0,"o":"m 176 719 b 126 674 146 694 126 674 l 69 921 b 114 964 83 938 99 951 l 176 719 m 236 763 b 215 749 229 758 222 754 l 150 989 b 639 942 308 1090 531 1061 b 757 31 892 665 757 31 l 569 -60 l 413 79 l 413 47 l 213 -33 l 236 763 m 481 786 b 299 796 425 829 358 822 l 394 775 l 408 239 l 572 99 b 481 786 572 99 622 674 m 414 7 l 415 -44 l 210 -137 l 211 -82 l 414 7 "},"E":{"ha":843,"x_min":0,"x_max":0,"o":"m 658 578 l 658 435 l 347 410 l 449 401 l 467 101 l 636 151 l 644 -67 l 358 -107 l 214 39 l 240 401 l 151 394 l 168 601 l 253 597 l 268 803 l 422 818 l 436 589 l 658 578 m 749 874 l 225 826 l 169 1046 l 757 1015 l 749 874 m 186 824 l 131 818 l 71 1050 l 126 1047 l 186 824 m 697 -58 l 690 168 l 776 193 l 776 -47 l 697 -58 "},"F":{"ha":825,"x_min":0,"x_max":0,"o":"m 657 578 l 657 435 l 360 411 l 461 399 l 481 104 l 251 -7 l 261 403 l 161 394 l 178 601 l 267 597 l 272 796 l 432 807 l 447 589 l 657 578 m 749 874 l 225 826 l 169 1046 l 757 1015 l 749 874 m 186 824 l 131 818 l 69 1050 l 126 1047 l 186 824 m 249 -107 l 250 -51 l 485 58 l 488 3 l 249 -107 "},"G":{"ha":843,"x_min":0,"x_max":0,"o":"m 713 982 l 543 929 l 535 992 l 713 1049 l 713 982 m 382 457 l 428 463 l 435 319 l 389 313 l 382 457 m 432 -100 b 281 965 0 -196 108 836 b 488 1028 346 1014 488 1028 l 565 761 l 547 892 l 713 942 l 715 656 l 528 613 l 433 836 b 447 72 319 719 289 63 b 521 332 508 75 522 258 l 465 324 l 457 467 l 717 504 l 761 115 l 588 11 l 590 139 b 432 -100 581 47 532 -78 m 583 -101 l 586 -28 l 765 76 l 774 3 l 583 -101 "},"H":{"ha":896,"x_min":0,"x_max":0,"o":"m 228 -107 l 236 374 l 167 368 l 194 539 l 238 538 l 244 947 l 417 1046 l 442 533 l 597 531 l 603 986 l 775 940 l 819 142 l 590 46 l 594 404 l 449 392 l 468 3 l 228 -107 m 160 539 l 129 365 l 69 360 l 104 540 l 160 539 m 588 -107 l 589 1 l 822 97 l 828 3 l 588 -107 "},"I":{"ha":546,"x_min":0,"x_max":0,"o":"m 343 854 l 392 63 l 456 68 l 476 -108 l 96 -86 l 92 40 l 158 44 l 171 853 l 343 854 m 125 1046 l 104 875 l 69 874 l 90 1049 l 125 1046 m 454 1021 l 450 894 l 138 878 l 157 1044 l 454 1021 "},"J":{"ha":700,"x_min":0,"x_max":0,"o":"m 174 1028 l 176 824 l 110 813 l 110 1024 l 174 1028 m 338 -107 b 93 375 110 -122 61 146 l 290 272 b 339 114 276 165 290 106 b 328 813 426 131 382 547 l 497 878 l 219 831 l 215 1029 l 624 1051 l 589 894 l 511 881 b 338 -107 593 536 700 -83 m 314 382 b 297 314 308 363 301 335 l 101 419 b 118 493 106 444 111 469 l 314 382 "},"K":{"ha":750,"x_min":0,"x_max":0,"o":"m 469 -35 l 671 74 l 681 1 l 471 -101 l 469 -35 m 254 1046 l 258 978 l 82 881 l 82 947 l 254 1046 m 290 319 l 307 3 l 67 -107 l 81 838 l 260 936 l 274 672 l 499 1051 l 675 929 l 315 519 l 501 588 l 622 457 l 665 114 l 468 11 l 453 447 l 225 294 l 290 319 "},"L":{"ha":681,"x_min":0,"x_max":0,"o":"m 613 215 l 596 -42 l 533 -51 l 549 193 l 613 215 m 289 1054 l 292 954 l 96 883 l 99 975 l 289 1054 m 485 -60 l 211 -101 l 67 44 l 93 832 l 293 910 l 321 115 l 504 178 l 485 -60 "},"M":{"ha":869,"x_min":0,"x_max":0,"o":"m 561 -107 l 563 -18 l 797 81 l 801 3 l 561 -107 m 254 1046 l 281 969 l 81 858 l 82 947 l 254 1046 m 285 433 l 306 3 l 67 -107 l 81 810 l 294 933 l 422 567 l 576 1053 l 750 951 l 794 132 l 564 35 l 569 465 l 478 92 l 392 82 l 285 433 "},"N":{"ha":803,"x_min":0,"x_max":0,"o":"m 725 3 l 496 -107 l 471 -21 l 725 89 l 725 3 m 735 921 l 507 971 l 503 1046 l 735 971 l 735 921 m 275 522 l 307 3 l 67 -107 l 83 947 l 256 1046 l 539 385 l 508 936 l 735 885 l 726 140 l 457 26 l 275 522 "},"O":{"ha":874,"x_min":0,"x_max":0,"o":"m 438 -107 b 128 474 231 -112 92 153 l 67 469 b 69 544 67 494 68 519 l 294 547 b 292 479 293 525 292 503 l 353 481 b 438 153 324 310 357 153 b 574 360 500 153 553 239 l 799 350 b 438 -107 764 90 615 -101 m 438 786 b 300 586 374 786 321 706 l 74 579 b 438 1046 107 844 257 1046 b 806 522 629 1046 789 815 l 582 508 b 438 786 572 665 511 786 m 581 411 b 582 469 582 429 582 449 l 807 476 b 807 469 807 474 807 471 b 806 411 807 450 807 431 l 581 411 "},"P":{"ha":847,"x_min":0,"x_max":0,"o":"m 213 -19 l 233 790 l 169 789 l 196 1029 l 654 976 l 754 826 b 654 375 754 826 783 482 b 422 318 583 315 494 308 l 442 61 l 213 -19 m 551 803 l 261 792 l 390 764 l 411 471 b 519 500 449 463 488 467 b 551 803 604 589 551 803 m 208 -135 l 211 -62 l 444 19 l 449 -42 l 208 -135 m 154 1033 l 126 788 l 68 785 l 94 1040 l 154 1033 "},"Q":{"ha":903,"x_min":0,"x_max":0,"o":"m 438 789 b 304 606 378 789 326 715 l 78 606 b 438 1049 117 860 263 1049 b 807 513 633 1049 793 813 l 582 507 b 438 789 574 665 513 789 m 807 461 b 739 140 806 342 781 231 l 833 28 l 614 -107 l 497 110 l 553 -74 b 438 -104 517 -93 478 -103 b 128 475 231 -110 93 156 l 67 472 b 71 553 67 499 68 526 l 296 560 b 292 482 293 535 292 508 l 353 483 b 438 156 324 311 357 156 b 469 163 449 156 458 157 l 365 354 l 468 461 l 569 342 b 583 461 578 378 582 419 l 807 461 "},"R":{"ha":881,"x_min":0,"x_max":0,"o":"m 210 -125 l 233 808 l 164 804 l 190 1042 l 676 1001 l 778 853 b 678 456 778 853 806 564 b 542 396 638 422 590 404 l 729 146 l 564 6 l 429 249 l 449 -33 l 210 -125 m 524 822 l 250 808 l 392 779 l 408 531 b 493 564 436 528 465 535 b 524 822 578 653 524 822 m 583 -28 l 756 110 l 806 43 l 621 -96 l 583 -28 m 147 1044 l 122 803 l 68 800 l 94 1049 l 147 1044 "},"S":{"ha":796,"x_min":0,"x_max":0,"o":"m 250 435 b 247 1006 0 501 31 893 b 435 1051 272 1018 435 1051 l 513 879 l 514 943 l 644 965 l 606 675 l 481 628 l 353 899 b 300 657 353 899 263 772 b 636 481 338 540 499 599 b 569 -39 767 369 729 39 b 353 -100 514 -65 353 -100 l 267 97 l 269 14 l 107 -17 l 156 361 l 256 368 l 450 94 b 506 322 450 94 554 210 b 250 435 469 406 349 408 m 657 1051 l 650 1007 l 514 979 l 515 1014 l 657 1051 m 92 -129 l 100 -61 l 271 -25 l 272 -85 l 92 -129 "},"T":{"ha":744,"x_min":0,"x_max":0,"o":"m 147 1051 l 126 858 l 68 854 l 89 1051 l 147 1051 m 269 40 l 281 871 l 165 863 l 185 1050 l 640 1040 l 675 904 l 468 886 l 513 118 l 269 40 m 268 -81 l 269 1 l 514 82 l 518 3 l 268 -81 "},"U":{"ha":840,"x_min":0,"x_max":0,"o":"m 679 974 l 490 914 b 468 988 485 939 476 964 l 647 1051 b 679 974 658 1033 669 1006 m 392 990 b 369 906 383 963 376 935 l 163 944 b 204 1050 175 988 189 1024 l 392 990 m 428 -82 b 151 901 74 -83 69 565 l 360 857 b 432 172 300 540 340 172 b 500 872 525 172 568 569 l 690 933 b 428 -82 769 624 782 -79 "},"V":{"ha":788,"x_min":0,"x_max":0,"o":"m 717 947 l 700 861 l 496 947 l 511 1051 l 717 947 m 535 10 l 244 -106 l 71 949 l 267 1051 l 394 288 l 489 900 l 692 817 l 535 10 "},"W":{"ha":892,"x_min":0,"x_max":0,"o":"m 306 951 l 74 853 l 68 944 l 308 1054 l 306 951 m 304 904 l 288 294 l 421 693 l 507 694 l 622 313 l 581 1051 l 825 942 l 793 147 l 571 28 l 464 325 l 342 -107 l 124 3 l 76 806 l 304 904 m 788 0 l 615 -99 l 586 -15 l 792 106 l 788 0 "},"X":{"ha":833,"x_min":0,"x_max":0,"o":"m 535 -54 l 725 69 l 757 3 l 561 -110 l 535 -54 m 278 996 l 101 883 l 75 942 l 251 1051 l 278 996 m 299 456 l 121 843 l 299 953 l 418 706 l 578 1046 l 747 942 l 536 460 l 710 103 l 515 -12 l 421 194 l 289 -107 l 85 3 l 299 456 "},"Y":{"ha":761,"x_min":0,"x_max":0,"o":"m 503 71 l 510 3 l 275 -99 l 281 -6 l 503 71 m 278 994 l 96 888 l 74 942 l 261 1051 l 278 994 m 301 383 l 108 858 l 288 965 l 385 625 l 507 1051 l 686 942 l 474 408 l 499 117 l 282 40 l 301 383 "},"Z":{"ha":724,"x_min":0,"x_max":0,"o":"m 200 760 l 128 719 l 115 953 l 185 969 l 200 760 m 514 -68 l 189 -107 l 71 22 l 454 904 l 229 776 l 210 976 l 497 1046 l 651 897 l 364 106 l 528 163 l 514 -68 m 572 178 l 657 208 l 647 -51 l 558 -62 l 572 178 "},"[":{"ha":515,"x_min":0,"x_max":0,"o":"m 446 1074 l 288 1053 l 274 -135 l 446 -165 l 406 -269 l 83 -278 l 67 1188 l 363 1188 l 446 1074 "},"\\":{"ha":832,"x_min":0,"x_max":0,"o":"m 175 1064 l 763 -76 l 531 -93 l 71 942 l 175 1064 "},"]":{"ha":517,"x_min":0,"x_max":0,"o":"m 71 -164 l 229 -143 l 243 1046 l 71 1075 l 111 1181 l 433 1188 l 450 -278 l 154 -278 l 71 -164 "},"^":{"ha":608,"x_min":0,"x_max":0,"o":"m 254 1050 l 388 1050 l 533 710 l 392 631 l 308 906 l 217 631 l 74 732 l 254 1050 "},"_":{"ha":581,"x_min":0,"x_max":0,"o":"m 511 139 l 479 19 l 67 -6 l 72 143 l 511 139 "},"a":{"ha":843,"x_min":0,"x_max":0,"o":"m 557 -107 l 493 399 l 210 372 l 381 361 l 331 3 l 86 -107 l 182 369 l 69 360 l 106 540 l 215 539 l 294 942 l 574 1051 l 674 529 l 694 417 l 772 3 l 557 -107 m 406 535 l 476 533 l 443 796 l 406 535 "},"b":{"ha":936,"x_min":0,"x_max":0,"o":"m 804 58 l 656 -53 l 429 88 l 435 3 l 194 -107 l 217 803 l 111 792 l 69 1029 l 629 1007 l 713 857 l 489 547 b 775 515 585 585 710 610 b 804 58 868 381 804 58 m 383 790 l 390 679 l 532 833 l 307 811 l 383 790 m 644 175 b 411 354 644 175 700 542 l 415 296 l 644 175 "},"c":{"ha":856,"x_min":0,"x_max":0,"o":"m 467 -90 b 278 964 0 -110 107 833 b 485 1028 343 1013 485 1028 l 564 761 l 532 992 l 708 1050 l 717 657 l 528 613 l 432 836 b 476 72 319 718 317 61 b 558 431 560 78 586 261 l 764 451 b 467 -90 801 165 699 -79 "},"d":{"ha":883,"x_min":0,"x_max":0,"o":"m 69 918 b 639 939 225 1096 508 1076 b 756 0 883 682 756 0 l 569 -90 l 414 47 l 415 -8 l 210 -101 l 236 760 b 125 671 172 719 125 671 l 69 918 m 572 68 b 479 783 572 68 621 667 b 297 793 425 828 358 819 l 394 772 l 410 207 l 572 68 "},"e":{"ha":843,"x_min":0,"x_max":0,"o":"m 131 818 l 69 1050 l 757 1015 l 749 874 l 131 818 m 358 -107 l 214 39 l 240 401 l 151 394 l 168 601 l 253 597 l 268 804 l 435 822 l 446 589 l 658 578 l 658 435 l 353 411 l 454 403 l 468 94 l 776 193 l 776 -47 l 358 -107 "},"f":{"ha":825,"x_min":0,"x_max":0,"o":"m 657 579 l 657 436 l 360 411 l 461 399 l 488 3 l 249 -106 l 261 404 l 161 396 l 178 603 l 267 597 l 272 796 l 432 807 l 447 589 l 657 579 m 757 1017 l 749 875 l 131 819 l 71 1051 l 757 1017 "},"g":{"ha":844,"x_min":0,"x_max":0,"o":"m 433 -100 b 290 968 0 -192 117 840 b 499 1026 356 1015 499 1026 l 572 760 l 544 990 l 722 1046 l 724 653 l 533 613 l 442 836 b 450 72 326 721 290 64 b 525 332 510 75 544 269 l 393 313 l 388 457 l 722 501 l 775 0 l 583 -103 l 593 138 b 433 -100 582 46 532 -78 "},"h":{"ha":819,"x_min":0,"x_max":0,"o":"m 153 -99 l 160 383 l 68 376 l 97 558 l 163 556 l 168 956 l 340 1054 l 365 549 l 521 542 l 528 994 l 700 949 l 751 11 l 513 -99 l 519 413 l 374 401 l 393 11 l 153 -99 "},"i":{"ha":546,"x_min":0,"x_max":0,"o":"m 456 69 l 476 -106 l 96 -85 l 92 42 l 158 47 l 171 844 l 343 856 l 392 65 l 456 69 m 454 1024 l 450 897 l 69 875 l 90 1051 l 454 1024 "},"j":{"ha":697,"x_min":0,"x_max":0,"o":"m 151 493 l 325 399 b 340 110 269 285 272 96 b 331 817 428 126 385 553 l 471 871 l 114 810 l 114 1021 l 628 1049 l 593 892 l 514 878 b 342 -110 594 535 686 -75 b 151 493 64 -136 57 339 "},"k":{"ha":750,"x_min":0,"x_max":0,"o":"m 290 325 l 307 8 l 67 -101 l 82 953 l 254 1051 l 274 678 l 499 1057 l 675 935 l 315 525 l 501 593 l 622 463 l 681 7 l 471 -96 l 453 453 l 225 300 l 290 325 "},"l":{"ha":681,"x_min":0,"x_max":0,"o":"m 596 -44 l 211 -104 l 67 42 l 99 974 l 289 1053 l 321 114 l 613 213 l 596 -44 "},"m":{"ha":869,"x_min":0,"x_max":0,"o":"m 286 433 l 307 3 l 67 -107 l 83 946 l 256 1044 l 424 567 l 578 1051 l 750 950 l 801 3 l 563 -107 l 569 465 l 478 92 l 392 82 l 286 433 "},"n":{"ha":803,"x_min":0,"x_max":0,"o":"m 275 522 l 307 3 l 67 -107 l 83 947 l 256 1046 l 539 385 l 503 1046 l 735 971 l 725 3 l 496 -107 l 275 522 "},"o":{"ha":874,"x_min":0,"x_max":0,"o":"m 436 1046 b 807 469 640 1046 807 788 b 436 -107 807 151 640 -101 b 128 474 229 -112 92 153 l 67 469 b 436 1046 67 788 232 1046 m 436 153 b 582 469 517 153 582 294 b 436 786 582 644 517 786 b 290 479 356 786 290 654 l 351 481 b 436 153 322 310 356 153 "},"p":{"ha":847,"x_min":0,"x_max":0,"o":"m 208 -129 l 233 803 l 68 796 l 94 1046 l 654 982 l 754 832 b 654 381 754 832 783 488 b 422 324 583 321 494 314 l 449 -36 l 208 -129 m 563 814 l 260 803 l 390 775 l 413 472 b 531 500 453 461 496 464 b 563 814 615 589 563 814 "},"q":{"ha":901,"x_min":0,"x_max":0,"o":"m 807 469 b 740 139 807 346 782 232 l 832 28 l 613 -107 l 499 106 l 553 -76 b 438 -107 517 -94 478 -106 b 128 474 231 -112 93 153 l 67 469 b 438 1046 67 788 233 1046 b 807 469 642 1046 807 788 m 571 340 b 583 469 578 379 583 424 b 438 786 583 644 518 786 b 292 479 357 786 292 654 l 353 481 b 438 153 324 310 357 153 b 469 160 449 153 458 156 l 364 354 l 468 463 l 571 340 "},"r":{"ha":881,"x_min":0,"x_max":0,"o":"m 210 -136 l 233 797 l 68 789 l 94 1039 l 676 990 l 778 842 b 678 446 778 842 806 553 b 542 386 638 411 590 393 l 806 32 l 621 -107 l 429 239 l 449 -43 l 210 -136 m 524 811 l 250 799 l 392 768 l 408 519 b 493 553 436 517 465 525 b 524 811 578 642 524 811 "},"s":{"ha":796,"x_min":0,"x_max":0,"o":"m 250 435 b 247 1006 0 501 31 893 b 435 1051 272 1019 435 1051 l 513 881 l 515 1014 l 657 1051 l 606 675 l 481 629 l 353 899 b 300 657 353 899 263 774 b 636 482 338 540 499 600 b 569 -37 767 369 729 39 b 353 -100 514 -65 353 -100 l 267 97 l 272 -39 l 92 -107 l 156 363 l 256 368 l 450 94 b 506 322 450 94 554 210 b 250 435 469 407 349 408 "},"t":{"ha":744,"x_min":0,"x_max":0,"o":"m 268 -82 l 281 871 l 68 853 l 89 1051 l 640 1040 l 675 903 l 468 886 l 518 1 l 268 -82 "},"u":{"ha":868,"x_min":0,"x_max":0,"o":"m 494 990 l 674 1053 b 454 -79 781 879 868 -76 b 231 1053 35 -82 108 832 l 419 993 b 460 174 317 657 354 174 b 494 990 565 174 604 685 "},"v":{"ha":788,"x_min":0,"x_max":0,"o":"m 535 10 l 244 -106 l 71 947 l 267 1051 l 394 286 l 511 1050 l 717 946 l 535 10 "},"w":{"ha":892,"x_min":0,"x_max":0,"o":"m 825 942 l 788 1 l 615 -97 l 464 325 l 342 -107 l 124 3 l 68 944 l 308 1054 l 288 294 l 421 693 l 507 694 l 622 313 l 581 1051 l 825 942 "},"x":{"ha":833,"x_min":0,"x_max":0,"o":"m 85 3 l 299 456 l 75 942 l 251 1050 l 418 706 l 578 1046 l 747 942 l 536 460 l 757 3 l 561 -111 l 421 194 l 289 -107 l 85 3 "},"y":{"ha":761,"x_min":0,"x_max":0,"o":"m 385 617 l 508 1043 l 688 935 l 474 400 l 510 -6 l 275 -106 l 303 376 l 75 935 l 263 1044 l 385 617 "},"z":{"ha":724,"x_min":0,"x_max":0,"o":"m 189 -107 l 71 22 l 454 904 l 128 719 l 115 953 l 497 1046 l 651 897 l 364 106 l 657 208 l 647 -51 l 189 -107 "},"|":{"ha":346,"x_min":0,"x_max":0,"o":"m 239 993 l 278 -4 l 67 -100 l 89 1050 l 239 993 "},"À":{"ha":900,"x_min":0,"x_max":0,"o":"m 600 -4 l 808 107 l 828 3 l 613 -106 l 600 -4 m 111 543 l 157 542 l 119 357 l 69 354 l 111 543 m 386 3 l 142 -106 l 236 368 l 158 361 l 194 542 l 271 539 l 350 943 l 629 1051 l 729 529 l 750 417 l 800 154 l 593 47 l 549 397 l 272 371 l 438 368 l 386 3 m 499 796 l 461 535 l 532 533 l 499 796 m 460 1244 l 532 1079 l 428 1061 l 353 1186 l 460 1244 "},"Á":{"ha":899,"x_min":0,"x_max":0,"o":"m 599 -4 l 808 107 l 828 3 l 613 -106 l 599 -4 m 157 542 l 119 357 l 69 354 l 110 543 l 157 542 m 799 154 l 593 47 l 549 397 l 272 371 l 438 368 l 386 3 l 142 -106 l 236 368 l 158 361 l 193 542 l 269 539 l 350 943 l 629 1051 l 728 529 l 750 417 l 799 154 m 461 535 l 531 533 l 497 796 l 461 535 m 508 1244 l 615 1186 l 542 1061 l 436 1079 l 508 1244 "},"Â":{"ha":900,"x_min":0,"x_max":0,"o":"m 600 -4 l 810 107 l 829 3 l 613 -106 l 600 -4 m 158 542 l 119 357 l 69 354 l 111 543 l 158 542 m 800 154 l 593 47 l 549 397 l 272 371 l 438 368 l 386 3 l 143 -106 l 236 368 l 160 361 l 194 542 l 271 539 l 351 943 l 631 1051 l 729 529 l 750 417 l 800 154 m 461 535 l 532 533 l 499 796 l 461 535 m 532 1043 l 503 1165 l 469 1051 l 374 1074 l 453 1232 l 561 1239 l 633 1074 l 532 1043 "},"Ã":{"ha":899,"x_min":0,"x_max":0,"o":"m 600 -4 l 808 107 l 828 3 l 613 -106 l 600 -4 m 69 354 l 111 543 l 157 542 l 119 357 l 69 354 m 800 154 l 593 47 l 549 397 l 272 371 l 438 368 l 386 3 l 142 -106 l 236 368 l 158 361 l 194 542 l 271 539 l 350 943 l 629 1051 l 729 529 l 750 417 l 800 154 m 461 535 l 532 533 l 499 796 l 461 535 m 421 1063 b 440 1215 400 1039 374 1181 b 640 1200 531 1263 622 1097 b 615 1058 654 1229 711 1074 b 421 1063 533 1046 444 1181 "},"Ä":{"ha":899,"x_min":0,"x_max":0,"o":"m 599 -4 l 808 107 l 828 3 l 613 -106 l 599 -4 m 193 542 l 269 539 l 350 943 l 629 1051 l 728 529 l 750 417 l 799 154 l 593 47 l 549 397 l 271 371 l 438 368 l 386 3 l 142 -106 l 236 368 l 158 361 l 193 542 m 497 796 l 461 535 l 531 533 l 497 796 m 69 354 l 110 543 l 157 542 l 119 357 l 69 354 m 417 1051 b 351 1117 381 1051 351 1081 b 417 1182 351 1153 381 1182 b 482 1117 453 1182 482 1153 b 417 1051 482 1081 453 1051 m 521 1117 b 586 1182 521 1153 550 1182 b 651 1117 622 1182 651 1153 b 586 1051 651 1081 622 1051 b 521 1117 550 1051 521 1081 "},"Å":{"ha":900,"x_min":0,"x_max":0,"o":"m 600 -4 l 808 107 l 829 3 l 613 -106 l 600 -4 m 194 542 l 271 539 l 351 943 l 631 1051 l 729 529 l 750 417 l 800 154 l 593 47 l 549 397 l 272 371 l 438 368 l 386 3 l 142 -106 l 236 368 l 160 361 l 194 542 m 499 796 l 461 535 l 532 533 l 499 796 m 69 354 l 111 543 l 158 542 l 119 357 l 69 354 m 483 1019 b 371 1132 421 1019 371 1069 b 483 1244 371 1194 421 1244 b 596 1132 544 1244 596 1194 b 483 1019 596 1069 544 1019 m 483 1176 b 439 1132 458 1176 439 1157 b 483 1088 439 1108 458 1088 b 526 1132 507 1088 526 1108 b 483 1176 526 1157 507 1176 "},"Æ":{"ha":1347,"x_min":0,"x_max":0,"o":"m 729 828 l 672 1046 l 1261 1017 l 1253 875 l 729 828 m 1200 -58 l 1194 168 l 1281 194 l 1281 -46 l 1200 -58 m 925 819 l 942 565 l 1161 579 l 1161 436 l 818 414 l 951 403 l 971 101 l 1139 153 l 1147 -65 l 861 -106 l 782 -25 l 615 -111 l 549 401 l 263 371 l 438 368 l 386 3 l 142 -106 l 236 368 l 158 361 l 194 542 l 271 539 l 350 943 l 629 1051 l 744 419 l 771 803 l 925 819 m 461 535 l 532 533 l 499 796 l 461 535 m 69 354 l 111 543 l 157 542 l 119 357 l 69 354 "},"Ç":{"ha":825,"x_min":0,"x_max":0,"o":"m 547 383 b 540 432 546 400 543 415 l 746 451 b 751 401 749 435 750 418 l 547 383 m 522 940 l 515 993 l 692 1051 l 693 993 l 522 940 m 551 336 l 754 354 b 450 -89 758 113 656 -79 b 325 -67 403 -90 361 -83 l 311 -93 b 350 -175 311 -93 356 -122 b 161 -296 342 -256 247 -325 b 90 -117 50 -257 60 -132 l 165 -144 b 249 -193 135 -194 203 -250 b 200 -106 296 -136 200 -106 l 246 -11 b 261 965 25 214 122 858 b 468 1028 325 1014 468 1028 l 547 763 l 526 908 l 693 960 l 700 658 l 511 614 l 415 838 b 460 72 303 719 300 61 b 551 336 526 78 557 200 "},"È":{"ha":843,"x_min":0,"x_max":0,"o":"m 749 875 l 225 828 l 168 1046 l 757 1017 l 749 875 m 126 1049 l 186 824 l 131 819 l 69 1051 l 126 1049 m 696 -58 l 690 168 l 776 194 l 776 -46 l 696 -58 m 422 819 l 436 589 l 657 579 l 657 436 l 347 411 l 447 403 l 467 101 l 636 153 l 643 -65 l 358 -106 l 214 40 l 239 403 l 150 396 l 167 603 l 253 599 l 267 803 l 422 819 m 349 1061 l 275 1186 l 381 1244 l 454 1079 l 349 1061 "},"É":{"ha":843,"x_min":0,"x_max":0,"o":"m 749 875 l 225 828 l 169 1046 l 757 1017 l 749 875 m 126 1049 l 186 824 l 131 819 l 71 1051 l 126 1049 m 697 -58 l 690 168 l 776 194 l 776 -46 l 697 -58 m 422 819 l 436 589 l 658 579 l 658 436 l 347 411 l 449 403 l 467 101 l 636 153 l 644 -65 l 358 -106 l 214 40 l 240 403 l 151 396 l 168 603 l 253 599 l 268 803 l 422 819 m 336 1079 l 410 1244 l 515 1186 l 442 1061 l 336 1079 "},"Ê":{"ha":843,"x_min":0,"x_max":0,"o":"m 657 579 l 657 436 l 346 411 l 447 403 l 465 101 l 635 153 l 643 -65 l 357 -106 l 214 40 l 239 403 l 150 396 l 167 603 l 253 599 l 267 803 l 421 819 l 436 589 l 657 579 m 757 1017 l 749 875 l 225 828 l 168 1046 l 757 1017 m 126 1049 l 185 824 l 131 819 l 69 1051 l 126 1049 m 696 -58 l 690 168 l 776 194 l 776 -46 l 696 -58 m 358 1232 l 467 1239 l 539 1074 l 438 1043 l 410 1165 l 375 1051 l 279 1074 l 358 1232 "},"Ë":{"ha":843,"x_min":0,"x_max":0,"o":"m 657 579 l 657 436 l 347 411 l 447 403 l 467 101 l 636 153 l 643 -65 l 358 -106 l 214 40 l 239 403 l 150 396 l 167 603 l 253 599 l 267 803 l 422 819 l 436 589 l 657 579 m 757 1017 l 749 875 l 225 828 l 168 1046 l 757 1017 m 126 1049 l 186 824 l 131 819 l 69 1051 l 126 1049 m 696 -58 l 690 168 l 776 194 l 776 -46 l 696 -58 m 410 1117 b 344 1051 410 1081 381 1051 b 279 1117 308 1051 279 1081 b 344 1182 279 1153 308 1182 b 410 1117 381 1182 410 1153 m 579 1117 b 514 1051 579 1081 550 1051 b 449 1117 478 1051 449 1081 b 514 1182 449 1153 478 1182 b 579 1117 550 1182 579 1153 "},"Ì":{"ha":544,"x_min":0,"x_max":0,"o":"m 456 68 l 476 -107 l 94 -86 l 90 40 l 158 46 l 169 853 l 343 856 l 392 64 l 456 68 m 125 1047 l 104 876 l 68 874 l 90 1050 l 125 1047 m 138 878 l 157 1044 l 454 1022 l 450 896 l 138 878 m 165 1186 l 272 1244 l 344 1079 l 240 1061 l 165 1186 "},"Í":{"ha":546,"x_min":0,"x_max":0,"o":"m 476 -107 l 96 -86 l 90 40 l 158 46 l 171 853 l 343 856 l 392 64 l 456 68 l 476 -107 m 125 1047 l 104 876 l 68 874 l 90 1050 l 125 1047 m 450 896 l 138 878 l 157 1044 l 454 1022 l 450 896 m 393 1186 l 319 1061 l 214 1079 l 286 1244 l 393 1186 "},"Î":{"ha":546,"x_min":0,"x_max":0,"o":"m 456 68 l 476 -107 l 96 -86 l 92 40 l 158 46 l 171 853 l 343 856 l 392 64 l 456 68 m 125 1047 l 104 876 l 69 874 l 90 1050 l 125 1047 m 450 896 l 138 878 l 157 1044 l 454 1022 l 450 896 m 276 1165 l 243 1051 l 146 1074 l 225 1232 l 333 1239 l 406 1074 l 304 1043 l 276 1165 "},"Ï":{"ha":546,"x_min":0,"x_max":0,"o":"m 456 68 l 478 -107 l 96 -86 l 92 40 l 158 46 l 171 853 l 344 856 l 393 64 l 456 68 m 125 1047 l 104 876 l 69 874 l 90 1050 l 125 1047 m 138 878 l 157 1044 l 456 1022 l 450 896 l 138 878 m 186 1051 b 121 1117 150 1051 121 1081 b 186 1182 121 1153 150 1182 b 251 1117 222 1182 251 1153 b 186 1051 251 1081 222 1051 m 422 1117 b 357 1051 422 1081 393 1051 b 292 1117 321 1051 292 1081 b 357 1182 292 1153 321 1182 b 422 1117 393 1182 422 1153 "},"Ñ":{"ha":801,"x_min":0,"x_max":0,"o":"m 496 -106 l 471 -19 l 725 89 l 725 3 l 496 -106 m 506 971 l 501 1046 l 735 971 l 735 922 l 506 971 m 539 386 l 508 938 l 733 886 l 726 140 l 457 26 l 275 646 l 307 3 l 67 -106 l 82 947 l 254 1046 l 539 386 m 507 1200 b 482 1058 521 1229 578 1074 b 288 1063 400 1046 311 1181 b 307 1215 267 1039 240 1181 b 507 1200 397 1263 489 1097 "},"Ò":{"ha":874,"x_min":0,"x_max":0,"o":"m 438 153 b 574 360 500 153 553 239 l 799 351 b 438 -106 764 92 615 -101 b 128 474 231 -111 92 153 l 67 469 b 69 544 67 496 68 521 l 294 549 b 292 479 293 526 292 503 l 353 481 b 438 153 324 310 357 153 m 74 579 b 438 1046 107 846 257 1046 b 806 524 629 1046 789 817 l 582 508 b 438 788 572 665 511 788 b 300 586 374 788 321 706 l 74 579 m 582 469 l 807 476 b 807 469 807 475 807 472 b 806 411 807 450 807 431 l 581 411 b 582 469 582 431 582 450 m 447 1244 l 519 1079 l 415 1061 l 340 1186 l 447 1244 "},"Ó":{"ha":874,"x_min":0,"x_max":0,"o":"m 436 -106 b 128 474 229 -111 92 153 l 67 469 b 69 544 67 496 67 521 l 294 549 b 290 479 292 526 290 503 l 351 481 b 436 153 322 310 356 153 b 572 360 499 153 553 239 l 799 351 b 436 -106 763 92 614 -101 m 436 788 b 300 586 374 788 319 706 l 74 579 b 436 1046 106 846 256 1046 b 804 524 629 1046 788 817 l 581 508 b 436 788 572 665 511 788 m 579 411 b 582 469 581 431 582 450 l 807 476 b 807 469 807 475 807 472 b 804 411 807 450 806 431 l 579 411 m 400 1079 l 472 1244 l 579 1186 l 504 1061 l 400 1079 "},"Ô":{"ha":874,"x_min":0,"x_max":0,"o":"m 438 -106 b 128 474 231 -111 92 153 l 67 469 b 69 544 67 496 68 521 l 294 549 b 292 479 293 526 292 503 l 353 481 b 438 153 324 310 357 153 b 574 360 500 153 553 239 l 799 351 b 438 -106 764 92 615 -101 m 438 788 b 300 586 374 788 321 706 l 74 579 b 438 1046 107 846 257 1046 b 806 524 631 1046 789 817 l 582 508 b 438 788 572 665 511 788 m 581 411 b 583 469 582 431 583 450 l 807 476 b 807 469 807 475 807 472 b 806 411 807 450 807 431 l 581 411 m 397 1244 l 506 1251 l 578 1088 l 475 1057 l 447 1179 l 414 1065 l 318 1088 l 397 1244 "},"Õ":{"ha":874,"x_min":0,"x_max":0,"o":"m 436 -106 b 128 474 231 -111 92 153 l 67 469 b 69 544 67 496 68 521 l 294 549 b 290 479 292 526 290 503 l 351 481 b 436 153 324 310 356 153 b 574 360 499 153 553 239 l 799 351 b 436 -106 764 92 614 -101 m 74 579 b 436 1046 106 846 256 1046 b 806 524 629 1046 788 817 l 581 508 b 436 788 572 665 511 788 b 300 586 374 788 319 706 l 74 579 m 807 469 b 804 411 807 450 806 431 l 579 411 b 582 469 581 431 582 450 l 807 476 b 807 469 807 475 807 472 m 325 1063 b 344 1215 306 1039 279 1181 b 546 1200 436 1263 528 1097 b 521 1058 560 1229 617 1074 b 325 1063 439 1046 350 1181 "},"Ö":{"ha":874,"x_min":0,"x_max":0,"o":"m 800 351 b 438 -106 764 92 615 -101 b 128 474 231 -111 93 153 l 67 469 b 71 544 67 496 68 521 l 294 549 b 292 479 293 526 292 503 l 353 481 b 438 153 324 310 357 153 b 574 360 500 153 553 239 l 800 351 m 74 579 b 438 1046 107 846 257 1046 b 806 524 631 1046 789 817 l 582 508 b 438 788 572 665 511 788 b 300 586 374 788 321 706 l 74 579 m 807 469 b 806 411 807 450 807 431 l 581 411 b 583 469 582 431 583 450 l 807 476 b 807 469 807 475 807 472 m 421 1131 b 354 1065 421 1094 390 1065 b 289 1131 318 1065 289 1094 b 354 1196 289 1167 318 1196 b 421 1131 390 1196 421 1167 m 590 1131 b 525 1065 590 1094 561 1065 b 460 1131 489 1065 460 1094 b 525 1196 460 1167 489 1196 b 590 1131 561 1196 590 1167 "},"Ø":{"ha":900,"x_min":0,"x_max":0,"o":"m 799 351 b 436 -106 764 92 615 -101 b 294 -62 385 -107 336 -92 l 246 -165 l 161 -114 l 219 15 b 128 474 144 122 107 289 l 67 469 b 69 544 67 496 68 521 l 294 549 b 290 479 292 526 290 503 l 353 481 b 344 301 342 417 339 354 l 528 717 b 436 788 503 761 471 788 b 300 586 374 788 319 706 l 74 579 b 436 1046 106 846 257 1046 b 635 957 510 1046 578 1014 l 693 1089 l 831 1051 l 725 832 b 806 524 769 746 799 639 l 581 508 b 579 529 581 515 581 522 l 404 164 b 436 153 414 157 425 153 b 574 360 499 153 553 239 l 799 351 m 579 411 b 582 469 582 431 582 450 l 807 476 b 807 469 807 475 807 472 b 804 411 807 450 806 431 l 579 411 "},"Ù":{"ha":840,"x_min":0,"x_max":0,"o":"m 679 974 l 490 914 b 468 989 483 940 476 965 l 647 1051 b 679 974 658 1033 668 1007 m 163 944 b 203 1051 175 989 189 1025 l 392 992 b 369 906 383 964 376 935 l 163 944 m 690 935 b 428 -81 768 625 782 -79 b 151 901 74 -82 69 565 l 360 858 b 432 172 300 540 340 172 b 500 874 525 172 567 569 l 690 935 m 506 1079 l 400 1061 l 326 1186 l 433 1244 l 506 1079 "},"Ú":{"ha":840,"x_min":0,"x_max":0,"o":"m 492 914 b 468 989 485 940 476 965 l 647 1051 b 679 974 658 1033 669 1007 l 492 914 m 163 944 b 204 1051 175 989 189 1025 l 393 992 b 369 906 385 964 376 935 l 163 944 m 690 935 b 428 -81 769 625 783 -79 b 151 901 74 -82 71 565 l 360 858 b 433 172 301 540 340 172 b 501 874 526 172 568 569 l 690 935 m 560 1186 l 486 1061 l 381 1079 l 454 1244 l 560 1186 "},"Û":{"ha":840,"x_min":0,"x_max":0,"o":"m 490 914 b 468 989 483 940 476 965 l 647 1051 b 679 974 658 1033 668 1007 l 490 914 m 392 992 b 369 906 383 964 376 935 l 163 944 b 203 1051 175 989 189 1025 l 392 992 m 690 935 b 428 -81 768 625 782 -79 b 151 901 74 -82 69 565 l 360 858 b 432 172 300 540 340 172 b 500 874 525 172 567 569 l 690 935 m 444 1179 l 411 1065 l 315 1088 l 394 1244 l 503 1251 l 575 1088 l 474 1057 l 444 1179 "},"Ü":{"ha":840,"x_min":0,"x_max":0,"o":"m 492 914 b 468 989 485 940 476 965 l 647 1051 b 679 974 658 1033 669 1007 l 492 914 m 163 944 b 204 1051 175 989 189 1025 l 393 992 b 369 906 385 964 376 935 l 163 944 m 690 935 b 428 -81 769 625 783 -79 b 151 901 74 -82 71 565 l 360 858 b 433 172 301 540 340 172 b 501 874 526 172 568 569 l 690 935 m 278 1131 b 343 1196 278 1167 307 1196 b 408 1131 379 1196 408 1167 b 343 1065 408 1094 379 1065 b 278 1131 307 1065 278 1094 m 513 1065 b 447 1131 476 1065 447 1094 b 513 1196 447 1167 476 1196 b 578 1131 549 1196 578 1167 b 513 1065 578 1094 549 1065 "},"Ý":{"ha":761,"x_min":0,"x_max":0,"o":"m 282 40 l 301 385 l 108 858 l 288 965 l 385 626 l 507 1051 l 686 943 l 474 408 l 499 117 l 282 40 m 503 72 l 510 3 l 275 -97 l 281 -6 l 503 72 m 263 1053 l 278 994 l 96 889 l 74 943 l 263 1053 m 488 1186 l 413 1061 l 308 1079 l 381 1244 l 488 1186 "},"à":{"ha":844,"x_min":0,"x_max":0,"o":"m 694 417 l 772 3 l 557 -106 l 493 399 l 210 374 l 381 361 l 331 3 l 86 -106 l 182 371 l 69 361 l 106 542 l 215 539 l 294 943 l 574 1051 l 674 529 l 694 417 m 406 535 l 476 533 l 443 796 l 406 535 m 353 1058 l 279 1183 l 385 1242 l 457 1076 l 353 1058 "},"á":{"ha":843,"x_min":0,"x_max":0,"o":"m 693 417 l 772 3 l 557 -106 l 492 399 l 210 374 l 381 361 l 329 3 l 86 -106 l 181 371 l 69 361 l 104 542 l 214 539 l 294 943 l 574 1051 l 672 529 l 693 417 m 406 535 l 475 533 l 442 796 l 406 535 m 371 1076 l 443 1242 l 550 1183 l 475 1058 l 371 1076 "},"â":{"ha":843,"x_min":0,"x_max":0,"o":"m 694 417 l 772 3 l 557 -106 l 493 399 l 210 374 l 381 361 l 331 3 l 86 -106 l 181 371 l 69 361 l 106 542 l 215 539 l 294 943 l 574 1051 l 674 529 l 694 417 m 406 535 l 476 533 l 443 796 l 406 535 m 388 1228 l 496 1235 l 568 1071 l 465 1040 l 438 1163 l 404 1049 l 308 1071 l 388 1228 "},"ã":{"ha":833,"x_min":0,"x_max":0,"o":"m 693 417 l 772 3 l 557 -106 l 492 399 l 210 374 l 381 361 l 329 3 l 86 -106 l 181 371 l 69 361 l 104 542 l 214 539 l 294 943 l 574 1051 l 672 529 l 693 417 m 404 535 l 475 533 l 442 796 l 404 535 m 547 1197 b 521 1056 561 1226 617 1071 b 326 1060 439 1043 350 1178 b 346 1213 306 1036 279 1178 b 547 1197 436 1260 529 1094 "},"ä":{"ha":833,"x_min":0,"x_max":0,"o":"m 672 529 l 694 417 l 772 3 l 557 -106 l 493 399 l 210 374 l 381 361 l 331 3 l 86 -106 l 181 371 l 69 361 l 106 542 l 214 539 l 294 943 l 574 1051 l 672 529 m 406 535 l 475 533 l 442 796 l 406 535 m 288 1114 b 353 1179 288 1150 317 1179 b 418 1114 389 1179 418 1150 b 353 1049 418 1078 389 1049 b 288 1114 317 1049 288 1078 m 522 1179 b 588 1114 558 1179 588 1150 b 522 1049 588 1078 558 1049 b 457 1114 486 1049 457 1078 b 522 1179 457 1150 486 1179 "},"å":{"ha":843,"x_min":0,"x_max":0,"o":"m 693 417 l 772 3 l 556 -106 l 492 399 l 210 374 l 381 361 l 329 3 l 86 -106 l 181 371 l 69 361 l 104 542 l 214 539 l 294 943 l 574 1051 l 672 529 l 693 417 m 404 535 l 475 533 l 442 796 l 404 535 m 321 1132 b 429 1240 321 1192 369 1240 b 536 1132 489 1240 536 1192 b 429 1024 536 1072 489 1024 b 321 1132 369 1024 321 1072 m 471 1132 b 429 1174 471 1156 451 1174 b 386 1132 406 1174 386 1156 b 429 1090 386 1108 406 1090 b 471 1132 451 1090 471 1108 "},"æ":{"ha":1260,"x_min":0,"x_max":0,"o":"m 1174 1017 l 1165 875 l 639 835 l 596 1051 l 1174 1017 m 869 403 l 883 94 l 1193 194 l 1193 -46 l 774 -106 l 701 -32 l 557 -106 l 493 399 l 210 374 l 381 361 l 331 3 l 86 -106 l 181 371 l 69 361 l 106 542 l 214 539 l 294 943 l 574 1051 l 660 599 l 669 599 l 683 804 l 851 822 l 861 589 l 1074 579 l 1074 436 l 768 411 l 869 403 m 406 535 l 475 533 l 442 796 l 406 535 "},"ç":{"ha":817,"x_min":0,"x_max":0,"o":"m 519 432 l 725 451 b 429 -89 763 167 661 -79 b 319 -74 388 -90 351 -85 l 314 -85 b 351 -167 314 -85 357 -114 b 164 -287 344 -247 250 -317 b 93 -108 53 -250 61 -124 l 168 -136 b 251 -185 138 -186 206 -242 b 203 -97 299 -128 203 -97 l 238 -25 b 240 964 0 188 99 856 b 447 1028 304 1014 447 1028 l 526 763 l 494 993 l 671 1051 l 678 658 l 490 614 l 393 836 b 439 72 281 719 279 61 b 519 432 521 78 549 261 "},"è":{"ha":843,"x_min":0,"x_max":0,"o":"m 757 1017 l 749 875 l 131 819 l 69 1051 l 757 1017 m 454 403 l 468 94 l 776 194 l 776 -46 l 358 -106 l 214 40 l 239 403 l 151 396 l 168 603 l 253 599 l 268 804 l 435 822 l 446 589 l 657 579 l 657 436 l 351 411 l 454 403 m 321 1057 l 247 1182 l 353 1239 l 425 1075 l 321 1057 "},"é":{"ha":843,"x_min":0,"x_max":0,"o":"m 757 1017 l 749 875 l 131 819 l 71 1051 l 757 1017 m 454 403 l 468 94 l 776 194 l 776 -46 l 358 -106 l 214 40 l 240 403 l 151 396 l 168 603 l 253 599 l 268 804 l 436 822 l 446 589 l 658 579 l 658 436 l 353 411 l 454 403 m 497 1182 l 422 1057 l 318 1075 l 390 1239 l 497 1182 "},"ê":{"ha":843,"x_min":0,"x_max":0,"o":"m 757 1017 l 749 875 l 131 819 l 69 1051 l 757 1017 m 453 403 l 467 94 l 776 194 l 776 -46 l 357 -106 l 214 40 l 239 403 l 150 396 l 167 603 l 253 599 l 267 804 l 435 822 l 444 589 l 657 579 l 657 436 l 351 411 l 453 403 m 338 1161 l 303 1047 l 207 1069 l 286 1226 l 394 1233 l 467 1069 l 365 1039 l 338 1161 "},"ë":{"ha":843,"x_min":0,"x_max":0,"o":"m 757 1017 l 749 875 l 131 819 l 69 1051 l 757 1017 m 454 403 l 467 94 l 776 194 l 776 -46 l 357 -106 l 214 40 l 239 403 l 150 396 l 167 603 l 253 599 l 267 804 l 435 822 l 446 589 l 657 579 l 657 436 l 351 411 l 454 403 m 204 1117 b 271 1182 204 1153 235 1182 b 336 1117 306 1182 336 1153 b 271 1051 336 1081 306 1051 b 204 1117 235 1051 204 1081 m 375 1117 b 440 1182 375 1153 404 1182 b 506 1117 476 1182 506 1153 b 440 1051 506 1081 476 1051 b 375 1117 404 1051 375 1081 "},"ì":{"ha":544,"x_min":0,"x_max":0,"o":"m 392 65 l 456 71 l 476 -106 l 94 -83 l 90 42 l 158 47 l 169 844 l 343 857 l 392 65 m 454 1024 l 450 897 l 68 876 l 90 1051 l 454 1024 m 226 1061 l 153 1186 l 258 1244 l 332 1079 l 226 1061 "},"í":{"ha":544,"x_min":0,"x_max":0,"o":"m 392 65 l 454 71 l 476 -106 l 94 -83 l 90 42 l 158 47 l 169 844 l 343 857 l 392 65 m 454 1024 l 450 897 l 68 876 l 90 1051 l 454 1024 m 315 1061 l 210 1079 l 282 1244 l 389 1186 l 315 1061 "},"î":{"ha":544,"x_min":0,"x_max":0,"o":"m 392 65 l 454 71 l 476 -106 l 94 -83 l 90 42 l 158 47 l 169 844 l 343 857 l 392 65 m 454 1024 l 450 897 l 68 876 l 90 1051 l 454 1024 m 138 1079 l 217 1238 l 325 1244 l 397 1079 l 296 1049 l 268 1171 l 233 1057 l 138 1079 "},"ï":{"ha":546,"x_min":0,"x_max":0,"o":"m 393 65 l 456 71 l 478 -106 l 96 -83 l 92 42 l 160 47 l 171 844 l 344 857 l 393 65 m 456 1024 l 451 897 l 69 876 l 90 1051 l 456 1024 m 115 1122 b 181 1188 115 1158 144 1188 b 246 1122 217 1188 246 1158 b 181 1057 246 1086 217 1057 b 115 1122 144 1057 115 1086 m 285 1122 b 350 1188 285 1158 314 1188 b 415 1122 386 1188 415 1158 b 350 1057 415 1086 386 1057 b 285 1122 314 1057 285 1086 "},"ñ":{"ha":801,"x_min":0,"x_max":0,"o":"m 539 386 l 501 1046 l 735 971 l 724 3 l 496 -106 l 275 646 l 307 3 l 67 -106 l 82 947 l 254 1046 l 539 386 m 303 1072 b 322 1225 282 1047 256 1190 b 524 1208 413 1272 504 1107 b 497 1068 538 1239 593 1083 b 303 1072 415 1056 326 1190 "},"ò":{"ha":874,"x_min":0,"x_max":0,"o":"m 436 1046 b 807 471 642 1046 807 789 b 436 -106 807 151 640 -100 b 128 474 231 -111 92 153 l 67 471 b 436 1046 67 789 232 1046 m 436 153 b 582 471 517 153 582 294 b 436 788 582 646 517 788 b 292 479 356 788 292 654 l 353 482 b 436 153 324 310 356 153 m 440 1253 l 513 1089 l 407 1071 l 333 1196 l 440 1253 "},"ó":{"ha":874,"x_min":0,"x_max":0,"o":"m 438 1046 b 807 471 642 1046 807 789 b 438 -106 807 151 642 -100 b 128 474 231 -111 93 153 l 67 471 b 438 1046 67 789 233 1046 m 438 153 b 583 471 518 153 583 294 b 438 788 583 646 518 788 b 292 479 357 788 292 654 l 353 482 b 438 153 324 310 357 153 m 497 1071 l 392 1089 l 465 1253 l 571 1196 l 497 1071 "},"ô":{"ha":874,"x_min":0,"x_max":0,"o":"m 436 1046 b 807 471 640 1046 807 789 b 436 -106 807 151 640 -100 b 128 474 231 -111 92 153 l 67 471 b 436 1046 67 789 232 1046 m 436 153 b 582 471 517 153 582 294 b 436 788 582 646 517 788 b 290 479 356 788 290 654 l 351 482 b 436 153 324 310 356 153 m 324 1096 l 403 1254 l 511 1261 l 583 1096 l 482 1065 l 454 1188 l 421 1074 l 324 1096 "},"õ":{"ha":874,"x_min":0,"x_max":0,"o":"m 438 1046 b 807 471 642 1046 807 789 b 438 -106 807 151 642 -100 b 128 474 231 -111 92 153 l 67 471 b 438 1046 67 789 233 1046 m 438 153 b 583 471 518 153 583 294 b 438 788 583 646 518 788 b 292 479 357 788 292 654 l 353 482 b 438 153 324 310 357 153 m 375 1225 b 576 1208 467 1272 558 1107 b 551 1068 590 1239 647 1083 b 356 1072 469 1056 381 1190 b 375 1225 336 1047 310 1190 "},"ö":{"ha":874,"x_min":0,"x_max":0,"o":"m 436 1046 b 807 471 640 1046 807 789 b 436 -106 807 151 640 -100 b 128 474 229 -111 92 153 l 67 471 b 436 1046 67 789 232 1046 m 436 153 b 582 471 517 153 582 294 b 436 788 582 646 517 788 b 290 479 356 788 290 654 l 351 482 b 436 153 322 310 356 153 m 300 1139 b 365 1204 300 1175 329 1204 b 431 1139 401 1204 431 1175 b 365 1074 431 1103 401 1074 b 300 1139 329 1074 300 1103 m 469 1139 b 535 1204 469 1175 499 1204 b 600 1139 571 1204 600 1175 b 535 1074 600 1103 571 1074 b 469 1139 499 1074 469 1103 "},"ø":{"ha":918,"x_min":0,"x_max":0,"o":"m 711 1079 l 849 1042 l 736 808 b 807 471 781 713 807 596 b 438 -106 807 151 642 -100 b 313 -74 392 -107 350 -96 l 264 -175 l 179 -124 l 233 -3 b 128 474 149 103 106 278 l 67 471 b 438 1046 67 789 232 1046 b 650 942 517 1046 590 1007 l 711 1079 m 353 482 b 351 264 339 401 339 324 l 540 693 b 438 788 514 751 478 788 b 292 479 357 788 292 654 l 353 482 m 438 153 b 582 471 517 153 582 294 b 582 488 582 476 582 482 l 422 154 b 438 153 428 154 432 153 "},"ù":{"ha":869,"x_min":0,"x_max":0,"o":"m 496 990 l 675 1054 b 456 -78 782 881 869 -76 b 232 1053 36 -81 108 832 l 419 993 b 461 175 318 658 356 175 b 496 990 565 175 606 685 m 428 1071 l 353 1196 l 460 1253 l 532 1089 l 428 1071 "},"ú":{"ha":868,"x_min":0,"x_max":0,"o":"m 494 990 l 674 1054 b 454 -78 781 881 868 -76 b 231 1053 35 -81 108 832 l 419 993 b 460 175 317 658 354 175 b 494 990 565 175 604 685 m 511 1071 l 406 1089 l 479 1253 l 585 1196 l 511 1071 "},"û":{"ha":868,"x_min":0,"x_max":0,"o":"m 496 990 l 674 1054 b 456 -78 782 881 868 -76 b 231 1053 35 -81 108 832 l 419 993 b 460 175 317 658 354 175 b 496 990 565 175 606 685 m 422 1074 l 326 1096 l 404 1254 l 513 1261 l 586 1096 l 483 1065 l 456 1188 l 422 1074 "},"ü":{"ha":869,"x_min":0,"x_max":0,"o":"m 496 990 l 675 1054 b 456 -78 782 881 869 -76 b 231 1053 35 -81 108 832 l 419 993 b 460 175 318 658 354 175 b 496 990 565 175 606 685 m 311 1126 b 376 1192 311 1163 340 1192 b 442 1126 413 1192 442 1163 b 376 1061 442 1090 413 1061 b 311 1126 340 1061 311 1090 m 547 1061 b 482 1126 511 1061 482 1090 b 547 1192 482 1163 511 1192 b 613 1126 583 1192 613 1163 b 547 1061 613 1090 583 1061 "},"ý":{"ha":761,"x_min":0,"x_max":0,"o":"m 508 1043 l 688 935 l 474 401 l 510 -4 l 275 -106 l 303 376 l 75 935 l 263 1044 l 385 618 l 508 1043 m 335 1076 l 407 1242 l 514 1183 l 439 1058 l 335 1076 "}}}
